M48
;DRILL file {PCBnew (2011-08-12 BZR 3067)-stable} date Qui 03 Nov 2011 16:36:13 BRT
;FORMAT={-:-/ absolute / metric / decimal}
FMAT,2
METRIC,TZ
T1C0.800
T2C0.813
T3C1.001
T4C1.999
%
G90
G05
M71
T1
X115.611Y120.000
X118.151Y120.000
X120.691Y120.000
X123.231Y120.000
X125.771Y120.000
X128.311Y120.000
X130.851Y120.000
X133.391Y120.000
T2
X103.231Y98.999
X105.771Y98.999
X105.982Y88.999
X108.522Y88.999
X112.700Y101.389
X112.700Y109.009
X113.231Y81.750
X115.771Y81.750
X124.501Y77.729
X124.501Y80.269
X133.231Y81.750
X135.771Y81.750
X136.002Y101.689
X136.002Y109.309
X138.501Y101.689
X138.501Y109.309
X140.480Y88.999
X143.020Y88.999
X143.231Y98.999
X145.771Y98.999
T3
X117.500Y96.500
X117.500Y101.498
X132.001Y96.500
X132.001Y98.999
X132.001Y101.498
T4
X104.501Y110.998
X124.501Y85.999
X124.501Y93.500
X124.501Y104.498
X144.501Y110.998
T0
M30
